<?xml version="1.0" standalone="no"?><svg xmlns="http://www.w3.org/2000/svg" viewBox="0 0 1440 320"><path fill="#0099ff" fill-opacity="0.15" d="M0,160L30,144C60,128,120,96,180,80C240,64,300,64,360,80C420,96,480,128,540,122.7C600,117,660,75,720,69.3C780,64,840,96,900,101.3C960,107,1020,85,1080,101.3C1140,117,1200,171,1260,181.3C1320,192,1380,160,1410,144L1440,128L1440,0L1410,0C1380,0,1320,0,1260,0C1200,0,1140,0,1080,0C1020,0,960,0,900,0C840,0,780,0,720,0C660,0,600,0,540,0C480,0,420,0,360,0C300,0,240,0,180,0C120,0,60,0,30,0L0,0Z"></path></svg>