<?xml version="1.0" standalone="no"?><svg xmlns="http://www.w3.org/2000/svg" viewBox="0 0 1440 320"><path fill="#0099ff" fill-opacity="0.15" d="M0,224L20,229.3C40,235,80,245,120,256C160,267,200,277,240,266.7C280,256,320,224,360,213.3C400,203,440,213,480,229.3C520,245,560,267,600,261.3C640,256,680,224,720,224C760,224,800,256,840,277.3C880,299,920,309,960,282.7C1000,256,1040,192,1080,176C1120,160,1160,192,1200,208C1240,224,1280,224,1320,229.3C1360,235,1400,245,1420,250.7L1440,256L1440,320L1420,320C1400,320,1360,320,1320,320C1280,320,1240,320,1200,320C1160,320,1120,320,1080,320C1040,320,1000,320,960,320C920,320,880,320,840,320C800,320,760,320,720,320C680,320,640,320,600,320C560,320,520,320,480,320C440,320,400,320,360,320C320,320,280,320,240,320C200,320,160,320,120,320C80,320,40,320,20,320L0,320Z"></path></svg>